<?xml version="1.0" encoding="utf-8" ?>	<!-- Generator: Assembly 2.4 - http://assemblyapp.co -->	<svg version="1.1" xmlns="http://www.w3.org/2000/svg" xmlns:xlink="http://www.w3.org/1999/xlink" width="4096.00" height="4096.00" viewBox="0 0 4096.0 4096.0">		<g id="document" transform="scale(13.653333333333334 13.653333333333334) translate(150.0 150.0)">			<path d="M122.536,-133.442 L127.455,-106.692 L134.834,-107.922 L129.915,-134.672 L122.536,-133.442 Z M99.7827,-126.678 L109.007,-101.158 L116.079,-103.617 L106.855,-129.137 L99.7827,-126.678 Z M78.5673,-116.224 L92.096,-92.5485 L98.5528,-96.2382 L85.0242,-119.913 L78.5673,-116.224 Z M59.5041,-102.08 L77.0299,-80.8647 L82.8719,-86.0916 L65.3461,-107 L59.5041,-102.08 Z M42.9007,-84.8618 L63.8087,-67.336 L68.7282,-73.1779 L47.8203,-90.7037 L42.9007,-84.8618 Z M29.987,-64.8762 L53.6622,-51.3475 L57.3518,-57.8044 L33.6766,-71.3331 L29.987,-64.8762 Z M20.4554,-43.0458 L45.9754,-33.8217 L48.4352,-40.8935 L22.9152,-50.1176 L20.4554,-43.0458 Z M14.921,-19.6781 L41.6709,-14.7586 L42.9007,-22.1379 L16.1508,-27.0574 L14.921,-19.6781 Z M13.6911,3.68964 L13.6911,3.99711 L41.0559,3.99711 L41.0559,-3.38217 L13.6911,-3.38217 L13.6911,3.68964 Z M16.4583,27.3648 L43.2082,22.4453 L41.9783,15.066 L15.2284,19.9856 L16.4583,27.3648 Z M23.2226,50.1176 L48.7427,40.8935 L46.2829,33.8217 L20.7629,43.0458 L23.2226,50.1176 Z M33.6766,71.3331 L57.3518,57.8044 L53.6622,51.3475 L29.987,64.8762 L33.6766,71.3331 Z M47.8203,90.3962 L68.7282,72.8704 L63.8087,67.0285 L42.9007,84.5543 L47.8203,90.3962 Z M65.0386,107 L82.5644,86.0916 L76.7225,81.1721 L59.1967,102.08 L65.0386,107 Z M85.0242,119.913 L98.5528,96.2382 L92.096,92.5485 L78.5673,116.224 L85.0242,119.913 Z M106.855,129.445 L116.079,103.925 L109.007,101.465 L99.7827,126.985 L106.855,129.445 Z M130.222,134.979 L135.142,108.229 L127.763,107 L122.843,133.75 L130.222,134.979 Z M153.59,136.209 L153.897,136.209 L153.897,108.844 L146.518,108.844 L146.518,136.209 L153.59,136.209 Z M177.265,133.442 L172.346,106.692 L164.966,107.922 L169.886,134.672 L177.265,133.442 Z M200.018,126.678 L190.794,101.158 L183.722,103.617 L192.946,129.137 L200.018,126.678 Z M221.233,116.224 L207.705,92.5485 L201.248,96.2382 L214.777,119.913 L221.233,116.224 Z M240.297,102.08 L222.771,81.1721 L216.929,86.0916 L234.455,107 L240.297,102.08 Z M256.9,84.8618 L235.992,67.336 L231.072,73.1779 L251.98,90.7037 L256.9,84.8618 Z M269.814,64.8762 L246.139,51.3475 L242.449,57.8044 L266.124,71.3331 L269.814,64.8762 Z M279.345,43.0458 L253.825,33.8217 L251.366,40.8935 L276.886,50.1176 L279.345,43.0458 Z M284.88,19.6781 L258.13,14.7586 L256.9,22.1379 L283.65,27.0574 L284.88,19.6781 Z M286.11,-3.68964 L286.11,-3.99711 L258.745,-3.99711 L258.745,3.38217 L286.11,3.38217 L286.11,-3.68964 Z M283.342,-27.3648 L256.593,-22.4453 L257.822,-15.066 L284.572,-19.9856 L283.342,-27.3648 Z M276.578,-50.1176 L251.058,-40.8935 L253.518,-33.8217 L279.038,-43.0458 L276.578,-50.1176 Z M266.124,-71.3331 L242.449,-57.8044 L246.139,-51.3475 L269.814,-64.8762 L266.124,-71.3331 Z M251.98,-90.3962 L231.072,-72.8704 L235.992,-67.0285 L256.9,-84.5543 L251.98,-90.3962 Z M234.762,-107 L217.236,-86.0916 L223.078,-81.1721 L240.604,-102.08 L234.762,-107 Z M214.777,-119.913 L201.248,-96.2382 L207.705,-92.5485 L221.233,-116.224 L214.777,-119.913 Z M192.946,-129.445 L183.722,-103.925 L190.794,-101.465 L200.018,-126.985 L192.946,-129.445 Z M169.578,-134.979 L164.659,-108.229 L172.038,-107 L176.958,-133.75 L169.578,-134.979 Z M146.211,-136.209 L145.903,-136.209 L145.903,-108.844 L153.283,-108.844 L153.283,-136.209 L146.211,-136.209 Z " fill="#183279" fill-opacity="0.39" />			<path d="M143.862,-89.0782 L143.933,-44.533 L155.088,-44.5976 L155.018,-89.1427 L143.862,-89.0782 Z M110.02,-79.8721 L127.42,-38.7827 L137.692,-43.1327 L120.292,-84.2222 L110.02,-79.8721 Z M82.4728,-58.7327 L113.999,-27.1974 L121.995,-35.0878 L90.4694,-66.6231 L82.4728,-58.7327 Z M65.1016,-28.2348 L106.344,-11.5308 L110.52,-21.8415 L69.2776,-38.5455 L65.1016,-28.2348 Z M60.8578,6.48885 L105.443,5.77992 L105.191,-5.45127 L60.6058,-4.74235 L60.8578,6.48885 Z M70.0282,39.8807 L111.118,22.4806 L106.768,12.2082 L65.6782,29.6084 L70.0282,39.8807 Z M91.1676,67.4275 L122.703,35.9015 L114.813,27.905 L83.2772,59.431 L91.1676,67.4275 Z M121.666,84.7987 L138.37,43.5561 L128.059,39.3801 L111.355,80.6227 L121.666,84.7987 Z M155.938,89.0782 L155.868,44.533 L144.712,44.5976 L144.783,89.1427 L155.938,89.0782 Z M189.781,79.8721 L172.381,38.7827 L162.109,43.1327 L179.509,84.2222 L189.781,79.8721 Z M217.328,58.7327 L185.802,27.1974 L177.805,35.0878 L209.331,66.6231 L217.328,58.7327 Z M234.699,28.2348 L193.456,11.5308 L189.28,21.8415 L230.523,38.5455 L234.699,28.2348 Z M238.979,-6.03798 L194.433,-5.96739 L194.498,5.18788 L239.043,5.11728 L238.979,-6.03798 Z M229.772,-39.8807 L188.683,-22.4806 L193.033,-12.2082 L234.123,-29.6084 L229.772,-39.8807 Z M208.633,-67.4275 L177.098,-35.9015 L184.988,-27.905 L216.523,-59.431 L208.633,-67.4275 Z M178.135,-84.7987 L161.431,-43.5561 L171.742,-39.3801 L188.446,-80.6227 L178.135,-84.7987 Z " fill="#183279" fill-opacity="0.39" />		</g>	</svg>